<svg data-name="Layer 1" xmlns="http://www.w3.org/2000/svg" width="752.317" height="536.208"><path data-name="Path 2960" d="M49.863 536.208h652.553a1.247 1.247 0 000-2.494H49.863a1.247 1.247 0 100 2.494z" fill="#ccc"/><path d="M175.237 234.113c-38.163-37.57-54.282-76.764-45.387-110.362 11.414-43.117 62.123-72.928 139.125-81.79l.284 2.473c-75.93 8.738-125.865 37.88-137.003 79.954-8.656 32.697 7.228 71.035 44.728 107.952zm368.216 133.36c-47.63 0-99.39-7.078-150.802-20.689-63.577-16.831-121.87-42.236-168.578-73.47l1.383-2.068c46.483 31.082 104.518 56.37 167.832 73.132 57.216 15.148 114.862 22.166 166.683 20.314l.09 2.487q-8.21.295-16.608.294zm109.271-15.653l-.798-2.357c42.6-14.403 69.244-37.605 77.052-67.099 9.926-37.494-11.638-81.004-60.72-122.514-49.332-41.72-120.47-76.339-200.312-97.476l.637-2.406c80.19 21.23 151.675 56.027 201.282 97.982 49.857 42.165 71.706 86.576 61.52 125.05-8.033 30.34-35.233 54.138-78.661 68.82zm-391.16 16.693c-93.591-41.509-165.71-95.361-203.072-151.639l2.074-1.377c37.102 55.888 108.843 109.422 202.007 150.741zm329.06 71.911q-14.48 0-29.455-.646l.107-2.487c74.502 3.225 140.237-5.69 190.11-25.789l.93 2.31c-43.505 17.53-98.957 26.612-161.692 26.612zM536.321 44.193a885.28 885.28 0 00-47.291-13.938C397.466 6.015 307.458-2.592 228.733 5.37l-.25-2.476c79.018-7.989 169.334.638 261.184 24.954a887.663 887.663 0 0147.425 13.979z" fill="#f0f0f0"/><path d="M116.745 237.846c-38.164-37.569-54.282-76.763-45.388-110.362 11.415-43.116 62.124-72.927 139.125-81.79l.285 2.474c-75.93 8.738-125.865 37.88-137.003 79.953-8.657 32.698 7.228 71.036 44.728 107.952zm368.215 133.36c-47.63 0-99.39-7.078-150.8-20.688-63.578-16.832-121.872-42.237-168.58-73.47l1.384-2.069c46.483 31.082 104.518 56.371 167.832 73.132 57.216 15.148 114.861 22.167 166.682 20.315l.09 2.486q-8.208.296-16.607.294zm109.272-15.652l-.798-2.358c42.6-14.403 69.243-37.604 77.052-67.098 9.926-37.495-11.638-81.004-60.72-122.514-49.332-41.721-120.47-76.34-200.312-97.476l.637-2.406c80.19 21.23 151.675 56.027 201.282 97.982 49.857 42.165 71.705 86.576 61.52 125.05-8.033 30.34-35.234 54.137-78.661 68.82zm-391.16 16.693C109.48 330.737 37.36 276.885 0 220.607l2.073-1.376c37.103 55.888 108.844 109.421 202.008 150.74zm329.06 71.911q-14.48 0-29.455-.647l.107-2.486c74.502 3.225 140.236-5.69 190.11-25.789l.93 2.31c-43.505 17.53-98.957 26.612-161.692 26.612zM477.83 47.926a885.271 885.271 0 00-47.292-13.938C338.974 9.748 248.966 1.142 170.24 9.104l-.25-2.477c79.019-7.988 169.335.639 261.184 24.955A887.633 887.633 0 01478.6 45.56z" fill="#f0f0f0"/><path d="M42.424 171.18c17.887-20.055 46.419-32.278 72.275-24.961a123.81 123.81 0 00-48.313 69.939c-2.794 10.918-4.764 23.352-13.844 30.028-5.65 4.154-13.136 5.146-20.085 4.2-6.948-.946-13.518-3.648-20-6.326l-1.743.151c5.014-26.4 13.824-52.977 31.71-73.032z" fill="#f2f2f2"/><path d="M114.62 146.777a105.824 105.824 0 00-55.498 34.046 45.572 45.572 0 00-7.685 12.034 26.137 26.137 0 00-1.543 13.67c.581 4.313 1.675 8.659 1.197 13.039a16.004 16.004 0 01-6.784 11.193c-4.54 3.316-10.001 4.802-15.392 6.07-5.986 1.408-12.225 2.775-17.105 6.753-.59.482-1.304-.463-.714-.944 8.49-6.921 20.287-6.033 29.68-11.06 4.382-2.345 8.085-6.026 8.985-11.076.787-4.417-.337-8.899-.963-13.262a27.89 27.89 0 011.01-13.422 42.13 42.13 0 017.194-12.285 102.667 102.667 0 0123.904-21.407 107.7 107.7 0 0133.574-14.525c.74-.179.874.999.14 1.176z" fill="#fff"/><path d="M63.458 175.108a15.877 15.877 0 01-.489-20.554c.481-.59 1.422.13.94.722a14.702 14.702 0 00.494 19.117c.51.567-.438 1.278-.945.715zm-14.146 29.27a30.602 30.602 0 0021.261-6.732c.593-.48 1.306.465.714.945a31.83 31.83 0 01-22.138 6.96c-.762-.053-.595-1.226.163-1.173zm42.142-49.425a8.987 8.987 0 007.252 4.486c.763.043.594 1.216-.163 1.173a10.07 10.07 0 01-8.034-4.945.612.612 0 01.115-.83.595.595 0 01.83.116z" fill="#fff"/><path d="M151.403 229.47c-.477-.013-.953-.026-1.436-.032a118.355 118.355 0 00-19.166 1.118c-.492.061-.99.13-1.479.206a124.773 124.773 0 00-43.38 15.115 121.17 121.17 0 00-15.222 10.355c-6.634 5.294-13.406 11.562-21.173 14.275a20.79 20.79 0 01-2.47.724l-36.044-24.904c-.053-.097-.113-.187-.167-.285l-1.484-.929c.233-.215.48-.433.715-.648.135-.125.278-.245.413-.37.093-.082.186-.163.265-.242.03-.027.062-.055.087-.074.08-.079.16-.144.234-.215q2.068-1.833 4.17-3.643c.005-.008.005-.008.019-.011a178.164 178.164 0 0134.71-23.862c.376-.191.756-.39 1.147-.57a115.623 115.623 0 0117.5-7.056 102.207 102.207 0 0110.026-2.537 85 85 0 0126.557-1.018c17.643 2.106 34.417 9.832 45.353 23.547.28.351.551.697.825 1.056z" fill="#f2f2f2"/><path d="M151.006 229.872a105.824 105.824 0 00-64.81-6.23 45.571 45.571 0 00-13.382 4.981 26.137 26.137 0 00-9.461 9.986c-2.134 3.794-3.877 7.922-6.896 11.131a16.004 16.004 0 01-12.155 4.854c-5.622-.087-10.877-2.188-15.945-4.421-5.627-2.48-11.432-5.145-17.723-4.906-.762.028-.762-1.156 0-1.185 10.944-.415 19.829 7.398 30.355 9.04 4.911.765 10.083.055 13.843-3.436 3.287-3.052 5.089-7.307 7.216-11.168a27.89 27.89 0 018.887-10.108 42.13 42.13 0 0113.14-5.478 102.669 102.669 0 0131.975-2.7 107.701 107.701 0 0135.552 8.616c.698.303.097 1.324-.596 1.024z" fill="#fff"/><path d="M93.099 221.689a15.877 15.877 0 0111.984-16.705c.74-.182 1.057.96.316 1.141a14.702 14.702 0 00-11.116 15.562c.066.76-1.119.757-1.184.002zm-28.918 14.853a30.601 30.601 0 0021.03 7.426c.762-.026.762 1.158 0 1.184a31.83 31.83 0 01-21.866-7.771c-.577-.5.263-1.337.836-.839zm63.405-14.09a8.987 8.987 0 003.09 7.948c.583.493-.257 1.328-.836.838a10.07 10.07 0 01-3.438-8.785.612.612 0 01.591-.593.595.595 0 01.593.592z" fill="#fff"/><path d="M743.282 335.575c-10.106-24.9-32.87-46-59.682-47.8a123.81 123.81 0 0121.997 82.108c-1.038 11.222-3.362 23.596 2.946 32.935 3.925 5.811 10.643 9.262 17.505 10.706 6.862 1.444 13.958 1.108 20.962.764l1.592.729c4.15-26.55 4.786-54.543-5.32-79.442z" fill="#f2f2f2"/><path d="M683.487 288.328a105.824 105.824 0 0140.828 50.718 45.571 45.571 0 013.192 13.917 26.137 26.137 0 01-3.14 13.392c-1.998 3.868-4.488 7.593-5.51 11.88a16.004 16.004 0 002.626 12.821c3.162 4.649 7.806 7.884 12.457 10.89 5.165 3.338 10.582 6.723 13.84 12.11.395.652 1.385.001.99-.65-5.669-9.372-17.08-12.5-24.236-20.391-3.339-3.683-5.589-8.393-4.739-13.453.743-4.424 3.308-8.267 5.364-12.166a27.89 27.89 0 003.559-12.98 42.13 42.13 0 00-2.646-13.99 102.668 102.668 0 00-15.319-28.195 107.7 107.7 0 00-26.739-24.964c-.636-.417-1.159.647-.527 1.06z" fill="#fff"/><path d="M722.151 332.205a15.877 15.877 0 007.369-19.193c-.255-.718-1.383-.356-1.128.364a14.702 14.702 0 01-6.89 17.84c-.671.361-.017 1.35.65.99zm3.486 32.322a30.601 30.601 0 01-17.762-13.486c-.397-.651-1.387 0-.99.65a31.83 31.83 0 0018.511 13.996c.735.206.972-.954.24-1.16zm-23.079-60.713a8.987 8.987 0 01-8.338 1.787c-.732-.216-.968.945-.24 1.16a10.07 10.07 0 009.228-1.957.612.612 0 00.17-.82.595.595 0 00-.82-.17z" fill="#fff"/><path d="M621.051 353.847c.454.148.907.295 1.363.452a118.354 118.354 0 0117.676 7.496c.443.222.888.455 1.323.69a124.774 124.774 0 0135.777 28.816 121.171 121.171 0 0110.856 14.869c4.469 7.215 8.74 15.395 15.144 20.56a20.775 20.775 0 002.081 1.512l42.318-11.34c.084-.074.17-.139.254-.213l1.71-.375c-.148-.282-.308-.57-.456-.851-.085-.163-.18-.324-.265-.488-.06-.108-.12-.216-.168-.317a1.678 1.678 0 00-.057-.098c-.048-.101-.103-.19-.148-.282q-1.332-2.421-2.702-4.832c-.003-.01-.003-.01-.015-.017a178.162 178.162 0 00-24.671-34.14c-.29-.306-.58-.621-.889-.922a115.629 115.629 0 00-14.11-12.528 102.225 102.225 0 00-8.59-5.759 85 85 0 00-24.67-9.884c-17.325-3.947-35.72-2.308-50.629 6.934-.38.237-.753.47-1.132.717z" fill="#f2f2f2"/><path d="M621.29 354.359a105.824 105.824 0 0163.134 15.915 45.57 45.57 0 0110.929 9.19 26.137 26.137 0 015.555 12.584c.734 4.29.988 8.764 2.753 12.801a16.004 16.004 0 009.817 8.657c5.323 1.808 10.98 1.595 16.503 1.195 6.133-.444 12.496-1.003 18.34 1.336.709.283 1.107-.832.4-1.115-10.169-4.07-21.163.302-31.628-1.69-4.883-.93-9.516-3.336-11.883-7.887-2.07-3.98-2.337-8.593-3.043-12.944a27.89 27.89 0 00-4.973-12.507 42.13 42.13 0 00-10.535-9.576 102.668 102.668 0 00-29.207-13.29 107.7 107.7 0 00-36.38-3.834c-.758.05-.535 1.215.218 1.165z" fill="#fff"/><path d="M678.579 366.114a15.877 15.877 0 00-5.672-19.76c-.636-.42-1.318.548-.682.968a14.702 14.702 0 015.239 18.393c-.317.693.8 1.088 1.115.4zm22.243 23.709a30.602 30.602 0 01-22.301-.074c-.71-.281-1.108.834-.4 1.115a31.83 31.83 0 0023.207.03c.711-.278.201-1.347-.506-1.07zm-54.981-34.581a8.987 8.987 0 01-5.582 6.447c-.714.269-.203 1.338.506 1.07a10.07 10.07 0 006.191-7.118.612.612 0 00-.358-.757.595.595 0 00-.757.358z" fill="#fff"/><circle cx="211.224" cy="134.241" r="9.956" fill="#fd6584"/><circle cx="806.332" cy="422.726" r="9.956" transform="rotate(-80.783 587.514 463.325)" fill="#e6e6e6"/><circle cx="210.819" cy="22.2" r="9.956" fill="#e6e6e6"/><path d="M507.89 139.358h-2.841v-77.85a45.058 45.058 0 00-45.057-45.058H295.056a45.057 45.057 0 00-45.058 45.058v427.091a45.058 45.058 0 0045.057 45.058h164.936a45.058 45.058 0 0045.058-45.058V194.773h2.842z" fill="#3f3d56"/><path d="M495.455 61.82v426.466a33.641 33.641 0 01-33.637 33.646H296.077a33.644 33.644 0 01-33.646-33.642V61.82a33.644 33.644 0 0133.642-33.646h20.117a15.984 15.984 0 0014.799 22.024h94.493a15.991 15.991 0 0014.798-22.024h21.53a33.644 33.644 0 0133.645 33.643z" fill="#f2f2f2"/><path fill="#fff" d="M274.99 68.884h51.414v2.301H274.99zm78.246 0h51.414v2.301h-51.414z"/><path d="M459.546 344.442H291.947a4.3 4.3 0 110-8.6h167.599a4.3 4.3 0 110 8.6zm0 29.918H291.947a4.3 4.3 0 010-8.6h167.599a4.3 4.3 0 010 8.6zm0 29.918H291.947a4.3 4.3 0 110-8.6h167.599a4.3 4.3 0 110 8.6z" fill="#ccc"/><path fill="#fff" d="M431.482 68.884h51.414v2.301h-51.414zM274.99 481.979h51.414v2.301H274.99zm78.246 0h51.414v2.301h-51.414zm78.246 0h51.414v2.301h-51.414z"/><circle cx="378.943" cy="207.6" r="77.934" fill="#d1d3d4"/><circle cx="378.943" cy="211.054" r="71.1" fill="#0a2472"/><path d="M372.736 238.92c-.153 0-.309-.003-.464-.01a9.47 9.47 0 01-7.018-3.649l-11.206-14.406a9.487 9.487 0 011.66-13.3l.402-.312a9.493 9.493 0 0113.304 1.66 5.685 5.685 0 004.214 2.19 5.576 5.576 0 004.408-1.769l22.752-24.018a9.49 9.49 0 0113.398-.362l.37.35a9.488 9.488 0 01.364 13.4l-35.306 37.267a9.462 9.462 0 01-6.878 2.96z" fill="#fff"/><path fill="#3f3d56" d="M245.216 98.529h9.205v49.479h-9.205zm0 55.233h9.205v28.767h-9.205zm0 34.521h9.205v28.767h-9.205z"/><circle cx="333.819" cy="35.242" r="4.603" fill="#fff"/><path d="M378.943 272.304a71.09 71.09 0 01-70.905-66.095 71.92 71.92 0 00-.194 5.005 71.1 71.1 0 00142.199 0c0-1.685-.08-3.35-.195-5.005a71.09 71.09 0 01-70.905 66.095z" fill="#231f20" opacity=".16"/><path fill="#ffb8b8" d="M479.182 268.426l56.383 2.301 6.904-37.973-48.329-14.958-14.958 50.63zm21.31-82.245l.546-17.94-27.327-6.85-49.198-14.354a10.27 10.27 0 10-5.482 12.556l47.83 19.66z"/><path d="M482.884 186.055l15.372-21.925.384.051c.24.032 24.348 3.257 40.152 7.963a12.634 12.634 0 018.18 6.802 13.25 13.25 0 01-1.842 14.41 14.173 14.173 0 01-14.567 4.84z" fill="#0a2472"/><path fill="#ffb8b8" d="M492.621 518.459l-15.637-.001-7.439-60.313 23.078.001-.002 60.313zm121.753-6.769l-15.461 2.337-16.372-58.524 20.269-3.449 11.564 59.636z"/><path d="M537.866 259.22l-54.082-9.205-1.923 3.965a183.652 183.652 0 00-17.997 68.212 987.907 987.907 0 002.38 158.343l29.681-.186a701.054 701.054 0 013.495-92.114 700.44 700.44 0 019.083-61 419.625 419.625 0 0028.542 80.124c10.373 21.936 31.709 47.292 42.081 69.228l31.886-3.827c-8.376-22.15-23.319-54.498-31.695-76.65-11.976-31.67-17.386-53.146-29.362-84.818a97.615 97.615 0 00.398-17.936c-.558-9.964-2.63-21.922-8.689-29.893z" fill="#2f2e41"/><path d="M546.222 242.71c2.7 5.05-3.714 15.508-8.356 16.51l-53.481-17.288 26.929-78.032 13.548 2.462 21.669 3.65 7.686 6.987a13.513 13.513 0 013.727 14.263z" fill="#0a2472"/><path d="M509.405 212.554l-15.13-9.655-19.878 19.963-37.522 34.909a10.27 10.27 0 107.977 11.138l41.38-31.015z" fill="#ffb8b8"/><path d="M500.28 227.614l-10.96-24.431.24-.303c.15-.19 15.266-19.247 27.4-30.411a12.634 12.634 0 0110.032-3.544 13.257 13.257 0 0111.434 8.962 14.171 14.171 0 01-3.302 14.99z" fill="#0a2472"/><circle cx="534.372" cy="134.9" r="23.786" fill="#ffb8b8"/><path d="M553.581 169.366l-.09-.023-34.566-8.645a7.901 7.901 0 01-4.857-11.734l1.142-1.9a12.96 12.96 0 00.53-12.378 13.644 13.644 0 00-7.844-6.7l-.115-.056-.726-.452a5.664 5.664 0 01-2.998-3.464 5.843 5.843 0 01.572-4.712 28.598 28.598 0 0113.064-11.518 29.494 29.494 0 0121.678-.651 3.85 3.85 0 013.54-.9c17.9 4.336 19.374 16.351 15.837 35.639l4.186 16.882a8.459 8.459 0 01-7.546 10.47zm-14.401-62.043l-.002.002zm.431-.106l.004.001zm-43.18 426.877h-8.924l-1.593-8.425-4.08 8.425h-23.669a5.32 5.32 0 01-3.023-9.699l18.901-13.054v-8.518l19.882 1.187zm120.432 0h-8.924l-1.593-8.425-4.08 8.425h-23.67a5.32 5.32 0 01-3.023-9.699l18.902-13.054v-8.518l19.881 1.187z" fill="#2f2e41"/></svg>